<svg xmlns="http://www.w3.org/2000/svg" viewBox="0 0 64 64" role="img" aria-label="connectome-fs favicon">
  <title>connectome-fs</title>
  <!-- Low-res: 8 outline + hub, pink-dominant -->
  <rect width="64" height="64" rx="14" fill="#1a1018"/>
  <g fill="none" stroke-linecap="round" stroke-linejoin="round">
    <path stroke="#f078a8" stroke-width="2.8"
      d="M12 34 L20 18 L32 10 L46 16 L54 30 L48 44 L34 54 L18 48 L12 34"/>
    <path stroke="#3ec9c4" stroke-width="2.2"
      d="M32 10 L36 30 L46 16 M36 30 L48 44 M36 30 L18 48"/>
  </g>
  <g>
    <circle cx="20" cy="18" r="4" fill="#f078a8"/>
    <circle cx="32" cy="10" r="4.4" fill="#f078a8"/>
    <circle cx="46" cy="16" r="3.8" fill="#3ec9c4"/>
    <circle cx="54" cy="30" r="4" fill="#f078a8"/>
    <circle cx="48" cy="44" r="3.8" fill="#f078a8"/>
    <circle cx="34" cy="54" r="4.4" fill="#f078a8"/>
    <circle cx="18" cy="48" r="3.8" fill="#3ec9c4"/>
    <circle cx="12" cy="34" r="3.6" fill="#f078a8"/>
    <circle cx="36" cy="30" r="4.2" fill="#f078a8"/>
  </g>
</svg>
